<svg width="958" height="366" viewBox="0 0 958 366" fill="none" xmlns="http://www.w3.org/2000/svg">
<mask id="mask0_752_32" style="mask-type:luminance" maskUnits="userSpaceOnUse" x="209" y="122" width="538" height="122">
<path d="M747 122H209V244H747V122Z" fill="white"/>
</mask>
<g mask="url(#mask0_752_32)">
<path d="M583.75 243.946C579.422 243.946 575.085 244.064 570.762 243.946C563.266 243.764 556.037 241.121 550.188 236.424C544.338 231.727 540.191 225.236 538.385 217.949C538.065 216.659 537.9 215.335 537.892 214.005C537.844 213.138 538.12 212.283 538.666 211.608C539.212 210.933 539.989 210.485 540.846 210.352C541.392 210.2 541.954 210.113 542.52 210.096C545.514 210.071 548.508 210.061 551.501 210.096C552.745 210.064 553.969 210.422 555 211.12C556.031 211.819 556.818 212.822 557.252 213.99C558.056 215.846 559.081 217.597 560.304 219.207C561.706 220.957 563.491 222.362 565.521 223.312C567.551 224.263 569.772 224.734 572.012 224.689C579.618 224.807 587.226 224.819 594.838 224.723C597.405 224.825 599.958 224.281 602.261 223.142C604.565 222.002 606.548 220.304 608.028 218.201C609.408 216.34 610.316 214.171 610.672 211.881C611.029 209.59 610.824 207.248 610.076 205.054C609.327 202.861 608.057 200.883 606.375 199.29C604.693 197.697 602.65 196.538 600.421 195.912C595.593 194.382 590.593 193.46 585.537 193.166C580.002 192.848 574.499 192.103 569.078 190.937C561.893 189.362 555.174 186.127 549.458 181.491C545.458 178.172 542.36 173.894 540.452 169.056C538.544 164.217 537.887 158.974 538.542 153.814C539.107 145.927 542.436 138.492 547.94 132.823C553.445 127.153 560.772 123.612 568.63 122.823C579.023 121.692 589.51 121.729 599.894 122.932C606.825 123.89 613.287 126.978 618.392 131.769C623.496 136.56 626.99 142.819 628.392 149.682C629.268 154.479 627.806 156.308 622.976 156.387C621.435 156.412 619.899 156.387 618.358 156.387C617.373 156.387 616.418 156.387 615.453 156.387C614.087 156.488 612.726 156.13 611.587 155.368C610.448 154.606 609.595 153.484 609.165 152.182C608.494 150.217 607.425 148.412 606.024 146.88C604.624 145.347 602.922 144.121 601.027 143.278C599.264 142.465 597.366 141.987 595.429 141.868C587.502 141.725 579.555 141.528 571.648 141.922C569.731 142.013 567.85 142.481 566.114 143.299C564.377 144.117 562.819 145.27 561.527 146.691C560.235 148.113 559.236 149.775 558.586 151.584C557.936 153.392 557.648 155.311 557.739 157.23C557.739 157.29 557.739 157.349 557.739 157.408C557.799 160.048 558.618 162.614 560.097 164.8C561.576 166.986 563.653 168.699 566.08 169.733C570.315 171.701 574.877 172.871 579.536 173.184C584.725 173.707 589.949 173.993 595.119 174.663C601.935 175.506 608.497 177.781 614.375 181.338C619.743 184.383 624.091 188.952 626.869 194.468C629.646 199.985 630.73 206.201 629.982 212.334C629.367 220.736 625.667 228.613 619.596 234.446C613.525 240.278 605.512 243.654 597.103 243.921C595.453 243.99 593.804 244.01 592.155 244.01C589.348 244.01 586.547 243.951 583.745 243.951M738.896 244C736.956 244 735.011 243.965 733.071 243.931C731.739 243.994 730.424 243.603 729.342 242.822C728.259 242.042 727.472 240.917 727.109 239.632L726.616 238.197L725.814 235.841L724.731 232.666L723.406 228.771L721.87 224.255L720.157 219.221L718.301 213.769L716.331 208L714.293 202.02L712.215 195.922L710.137 189.813L708.089 183.794L706.12 177.961L704.234 172.42L702.481 167.268L700.896 162.604L699.508 158.537C698.887 156.723 698.257 154.869 697.627 153.045C697.082 151.219 696.386 149.443 695.544 147.735L695.446 147.538C695.162 146.886 694.701 146.328 694.116 145.926C693.873 145.796 693.603 145.726 693.327 145.72C693.052 145.715 692.779 145.776 692.531 145.896C692.046 146.187 691.649 146.604 691.384 147.104C690.364 148.918 689.559 150.846 688.986 152.848L687.913 155.993L686.573 159.937L685.003 164.552L683.24 169.738L681.32 175.383L679.282 181.378L677.164 187.614L674.988 193.979L672.822 200.359L670.685 206.645L668.622 212.714L666.653 218.477L664.836 223.811L663.201 228.608L661.788 232.759L660.626 236.151L659.76 238.671C659.583 239.183 659.404 239.696 659.223 240.209L659.144 240.426C658.831 241.389 658.225 242.23 657.411 242.832C656.597 243.434 655.616 243.766 654.605 243.783C650.73 243.926 646.835 244.01 642.966 243.783C640.011 243.61 638.918 241.698 639.824 238.666C640.976 234.825 642.286 231.034 643.566 227.228C651.063 204.914 658.567 182.601 666.077 160.287C669.645 149.687 673.214 139.089 676.785 128.493C676.864 128.261 676.943 128.034 677.027 127.803C677.174 126.93 677.494 126.095 677.967 125.347C678.439 124.599 679.055 123.952 679.78 123.445C680.504 122.937 681.321 122.578 682.185 122.39C683.049 122.201 683.941 122.186 684.811 122.345C690.438 122.311 696.061 122.345 701.689 122.345C702.132 122.345 702.58 122.375 703.023 122.384C704.374 122.334 705.704 122.736 706.802 123.527C707.9 124.318 708.703 125.453 709.084 126.753C710.771 131.614 712.437 136.483 714.081 141.36C723.698 169.929 733.313 198.502 742.923 227.08C744.125 230.649 745.351 234.214 746.488 237.808C747.837 242.077 746.557 243.862 742.057 243.965C741.072 243.988 740.077 244 739.073 244H738.896ZM409.738 244C407.798 244 405.853 243.965 403.913 243.931C402.58 243.994 401.266 243.603 400.183 242.822C399.101 242.042 398.314 240.917 397.951 239.632C395.701 232.996 370.694 159.405 367.503 150.175C367.276 149.523 367.005 148.888 366.691 148.272C366.414 147.664 366.072 147.087 365.672 146.552C365.503 146.304 365.278 146.101 365.015 145.959C364.752 145.817 364.459 145.74 364.16 145.735C363.861 145.729 363.565 145.796 363.297 145.928C363.029 146.061 362.796 146.256 362.619 146.498C361.947 147.369 361.413 148.341 361.039 149.377C360.29 151.092 359.783 152.912 359.178 154.686L357.903 158.423L356.371 162.915L354.628 168.042L352.708 173.692L350.655 179.736L348.504 186.062L346.298 192.55L344.077 199.082L341.886 205.54L339.759 211.802L337.736 217.752L335.86 223.269L334.166 228.238L332.689 232.537L331.488 236.048C331.192 236.915 330.894 237.783 330.592 238.651C330.41 239.178 330.227 239.706 330.045 240.228L329.971 240.435C329.658 241.398 329.053 242.238 328.24 242.84C327.427 243.442 326.447 243.775 325.437 243.793C321.562 243.936 317.667 244.02 313.798 243.793C310.843 243.62 309.745 241.707 310.656 238.675C311.808 234.835 313.118 231.044 314.398 227.238C321.925 204.921 329.436 182.606 336.933 160.292C340.498 149.692 344.067 139.094 347.642 128.498C347.716 128.266 347.795 128.039 347.883 127.808C348.031 126.936 348.349 126.103 348.82 125.356C349.291 124.609 349.905 123.963 350.627 123.455C351.35 122.947 352.165 122.587 353.027 122.397C353.888 122.206 354.779 122.189 355.648 122.345C361.275 122.311 366.898 122.345 372.525 122.345C372.969 122.345 373.417 122.375 373.86 122.384C375.211 122.334 376.541 122.736 377.639 123.527C378.736 124.318 379.539 125.453 379.921 126.753C381.608 131.614 383.274 136.483 384.918 141.36C394.539 169.929 404.153 198.502 413.76 227.08C414.961 230.649 416.187 234.214 417.32 237.808C418.669 242.077 417.389 243.862 412.889 243.965C411.904 243.988 410.909 244 409.905 244H409.738ZM507.765 243.975H500.424C499.025 244.003 497.637 243.719 496.36 243.145C495.083 242.572 493.949 241.722 493.039 240.657C485.342 232.043 477.645 223.437 469.948 214.838C466.087 210.525 462.237 206.201 458.343 201.912C457.586 201.067 456.727 200.318 455.787 199.683C455.502 199.41 455.146 199.223 454.759 199.144C454.372 199.065 453.971 199.098 453.602 199.238C453.233 199.379 452.911 199.621 452.674 199.937C452.437 200.253 452.294 200.63 452.262 201.024C451.931 202.523 451.766 204.054 451.77 205.59C451.721 216.007 451.74 226.419 451.716 236.837C451.728 237.93 451.654 239.023 451.494 240.105C451.453 241.059 451.055 241.962 450.379 242.635C449.703 243.309 448.798 243.702 447.846 243.739C444.052 243.943 440.251 243.943 436.458 243.739C435.458 243.73 434.503 243.326 433.799 242.615C433.096 241.904 432.701 240.943 432.701 239.942C432.531 238.373 432.461 236.793 432.494 235.215C432.494 217.87 432.494 200.526 432.494 183.182C432.494 165.151 432.494 147.119 432.494 129.084C432.508 128.115 432.594 127.147 432.75 126.191C432.843 125.293 433.233 124.453 433.857 123.803C434.482 123.152 435.305 122.73 436.197 122.601C436.79 122.468 437.396 122.395 438.004 122.384C442.706 122.384 447.417 122.355 452.129 122.325C463.325 122.251 474.526 122.177 485.708 122.567C492.527 122.563 499.19 124.607 504.837 128.436C510.483 132.264 514.853 137.701 517.381 144.042C519.717 149.298 520.761 155.037 520.426 160.78C520.09 166.523 518.385 172.101 515.453 177.048C512.52 181.995 508.447 186.166 503.573 189.211C498.699 192.257 493.167 194.088 487.441 194.551C486.069 194.644 484.705 194.82 483.354 195.079C480.893 195.611 480.159 197.238 481.547 199.392C482.483 200.764 483.53 202.055 484.679 203.253C494.93 214.451 505.189 225.644 515.456 236.832C516.425 237.861 517.274 238.997 517.987 240.219C518.216 240.515 518.361 240.868 518.406 241.24C518.451 241.612 518.395 241.99 518.244 242.333C518.093 242.676 517.852 242.972 517.546 243.189C517.241 243.406 516.883 243.536 516.509 243.566C515.572 243.821 514.605 243.95 513.634 243.951C511.993 243.951 510.352 243.951 508.711 243.951L507.765 243.975ZM451.814 147.143C451.778 147.709 451.76 148.276 451.76 148.844C451.76 155.529 451.73 162.21 451.76 168.895C451.678 170.356 451.941 171.815 452.528 173.155C452.809 173.648 453.189 174.078 453.644 174.417C454.099 174.757 454.619 174.998 455.172 175.127C455.898 175.316 456.643 175.429 457.393 175.462C459.933 175.615 462.518 175.501 465.073 175.486L472.98 175.437C475.575 175.437 478.165 175.393 480.76 175.403C481.897 175.403 483.039 175.403 484.181 175.373C484.713 175.373 485.211 175.26 485.742 175.201C486.274 175.141 486.88 175.082 487.446 174.974C489.166 174.634 490.825 174.039 492.369 173.209C493.84 172.415 495.185 171.408 496.362 170.221C497.514 169.056 498.488 167.727 499.252 166.277C500.018 164.833 500.562 163.283 500.867 161.677C501.177 160.034 501.23 158.353 501.025 156.693C500.819 155.058 500.376 153.462 499.71 151.955C498.455 148.889 496.306 146.273 493.544 144.447C490.782 142.622 487.535 141.672 484.226 141.72C480.179 141.563 476.127 141.567 472.074 141.572H468.451H463.975C461.706 141.572 459.436 141.597 457.171 141.706C453.513 141.868 452.055 143.466 451.834 147.129M274.828 239.647C266.95 230.575 258.925 221.603 250.953 212.595C245.702 206.65 240.44 200.707 235.169 194.768C234.369 193.854 233.475 193.027 232.5 192.303C230.659 190.967 229.103 191.544 228.63 193.782C228.351 195.254 228.222 196.751 228.246 198.249C228.212 211.097 228.246 223.944 228.202 236.787C228.204 237.881 228.127 238.973 227.97 240.056C227.924 240.988 227.534 241.871 226.876 242.532C226.217 243.193 225.337 243.586 224.406 243.635C220.536 243.818 216.651 243.822 212.786 243.635C211.834 243.582 210.937 243.17 210.275 242.483C209.613 241.795 209.235 240.883 209.217 239.928C209.072 238.804 209 237.673 209 236.541C209 218.71 209 200.878 209 183.044C209 165.211 209 147.38 209 129.553C208.999 128.344 209.093 127.138 209.281 125.944C209.38 125.106 209.748 124.322 210.331 123.712C210.914 123.102 211.679 122.698 212.51 122.562C213.06 122.42 213.623 122.339 214.189 122.32C217.144 122.32 220.098 122.232 223.052 122.32C226.424 122.434 227.867 123.898 228.143 127.25C228.207 127.975 228.212 128.73 228.212 129.439C228.212 137.219 228.281 144.999 228.212 152.783C228.1 156.184 229.34 159.491 231.658 161.978C233.618 164.152 235.494 166.371 237.438 168.555C238 169.193 238.615 169.784 239.275 170.32C239.641 170.711 240.088 171.016 240.585 171.215C241.082 171.413 241.617 171.499 242.151 171.466C242.685 171.434 243.206 171.284 243.675 171.027C244.145 170.77 244.552 170.412 244.868 169.98C246.768 167.825 248.467 165.498 250.176 163.191C259.159 151.089 268.115 138.973 277.043 126.841C277.95 125.395 279.219 124.211 280.723 123.407C282.227 122.603 283.915 122.206 285.62 122.256C287.55 122.311 289.48 122.301 291.415 122.296C293.084 122.296 294.753 122.296 296.427 122.296C298.101 122.296 300.056 122.163 300.942 123.982C301.828 125.801 300.514 127.255 299.529 128.606C295.098 134.66 290.667 140.67 286.186 146.695L258.654 183.907C258.298 184.4 257.969 184.911 257.669 185.44C257.052 186.361 256.752 187.459 256.815 188.566C256.878 189.673 257.301 190.729 258.019 191.573C259.836 193.846 261.761 196.04 263.691 198.219C275.084 211.06 286.485 223.897 297.894 236.728C298.575 237.478 299.209 238.268 299.795 239.094C301.518 241.599 300.824 243.246 297.826 243.699C296.945 243.826 296.056 243.889 295.167 243.887C293.901 243.887 292.631 243.887 291.366 243.887C289.032 243.887 286.693 243.857 284.365 243.941H283.838H283.744C282.026 243.941 280.33 243.552 278.783 242.804C277.236 242.056 275.877 240.969 274.808 239.622M352.767 197.292C352.738 195.044 353.377 192.837 354.604 190.953C355.83 189.069 357.588 187.592 359.655 186.711C361.721 185.83 364.002 185.585 366.209 186.005C368.415 186.426 370.447 187.494 372.045 189.074C373.644 190.654 374.737 192.674 375.186 194.877C375.635 197.081 375.42 199.368 374.567 201.449C373.714 203.529 372.263 205.309 370.398 206.562C368.533 207.814 366.337 208.483 364.091 208.484C361.108 208.502 358.239 207.333 356.116 205.235C353.993 203.136 352.788 200.28 352.767 197.292ZM681.891 197.292C681.846 195.025 682.477 192.795 683.702 190.888C684.928 188.98 686.693 187.481 688.772 186.583C690.852 185.684 693.152 185.425 695.378 185.84C697.605 186.255 699.658 187.325 701.275 188.913C702.893 190.501 704.001 192.535 704.459 194.756C704.917 196.977 704.704 199.285 703.847 201.384C702.991 203.484 701.529 205.28 699.648 206.545C697.768 207.809 695.554 208.484 693.289 208.484C690.296 208.512 687.413 207.35 685.276 205.251C683.138 203.152 681.921 200.29 681.891 197.292Z" fill="#282828"/>
</g>
</svg>
